<?xml version="1.0" encoding="utf-8"?>
<!-- Generator: Adobe Illustrator 28.1.0, SVG Export Plug-In . SVG Version: 6.00 Build 0)  -->
<svg version="1.1" id="Capa_1" xmlns="http://www.w3.org/2000/svg" xmlns:xlink="http://www.w3.org/1999/xlink" x="0px" y="0px"
	 viewBox="0 0 280 30" style="enable-background:new 0 0 280 30;" xml:space="preserve">
<style type="text/css">
	.st0{fill:#263745;}
	.st1{fill:#E35A27;}
	.st2{fill:#F0AA3E;}
	.st3{fill:#EB8E26;}
	.st4{fill:#D94F06;}
	.st5{fill:#D03107;}
</style>
<g>
	<g>
		<path class="st0" d="M45.1,13.1L45.1,13.1c0-5.7,4.2-10.4,10.1-10.4c3.6,0,5.8,1.3,7.8,3.2l-1.5,1.7c-1.7-1.6-3.6-2.7-6.3-2.7
			c-4.4,0-7.7,3.6-7.7,8.2v0.1c0,4.6,3.3,8.2,7.7,8.2c2.7,0,4.5-1.1,6.4-2.9l1.5,1.4c-2.1,2.1-4.4,3.5-8,3.5
			C49.4,23.4,45.1,18.9,45.1,13.1z"/>
		<path class="st0" d="M65.5,15.8L65.5,15.8c0-4.2,3.2-7.7,7.7-7.7c4.4,0,7.7,3.5,7.7,7.6v0.1c0,4.2-3.3,7.7-7.7,7.7
			C68.7,23.4,65.5,19.9,65.5,15.8z M78.6,15.8L78.6,15.8c0-3.2-2.4-5.8-5.5-5.8c-3.2,0-5.4,2.6-5.4,5.7v0.1c0,3.2,2.3,5.7,5.4,5.7
			C76.3,21.4,78.6,18.9,78.6,15.8z"/>
		<path class="st0" d="M84.8,8.3H87v2.5c1-1.4,2.3-2.8,4.8-2.8c2.4,0,3.9,1.3,4.7,2.9c1.1-1.6,2.6-2.9,5.2-2.9
			c3.4,0,5.5,2.3,5.5,5.9v9.1h-2.2v-8.6c0-2.8-1.4-4.4-3.8-4.4c-2.2,0-4.1,1.7-4.1,4.6v8.5h-2.2v-8.7c0-2.8-1.4-4.4-3.8-4.4
			c-2.3,0-4.1,1.9-4.1,4.6v8.4h-2.2V8.3z"/>
		<path class="st0" d="M111.8,8.3h2.2v3c1.2-1.8,2.9-3.3,5.6-3.3c3.5,0,7,2.8,7,7.6v0.1c0,4.8-3.5,7.7-7,7.7c-2.7,0-4.5-1.5-5.6-3.1
			v7.4h-2.2V8.3z M124.5,15.7L124.5,15.7c0-3.5-2.4-5.8-5.2-5.8c-2.7,0-5.3,2.3-5.3,5.7v0.1c0,3.4,2.6,5.7,5.3,5.7
			C122.1,21.4,124.5,19.3,124.5,15.7z"/>
		<path class="st0" d="M129.6,18.8L129.6,18.8c0-3.2,2.6-4.9,6.3-4.9c1.9,0,3.2,0.3,4.5,0.6v-0.5c0-2.6-1.6-4-4.4-4
			c-1.7,0-3.1,0.4-4.5,1.1l-0.7-1.8c1.6-0.7,3.2-1.3,5.3-1.3c2.1,0,3.7,0.6,4.8,1.6c1,1,1.5,2.5,1.5,4.3v9h-2.2v-2.2
			c-1,1.3-2.7,2.5-5.3,2.5C132.4,23.4,129.6,21.8,129.6,18.8z M140.5,17.6v-1.4c-1.1-0.3-2.5-0.6-4.3-0.6c-2.7,0-4.3,1.2-4.3,3v0.1
			c0,1.9,1.7,2.9,3.7,2.9C138.3,21.6,140.5,20,140.5,17.6z"/>
		<path class="st0" d="M147.2,8.3h2.2v3.8c1.1-2.5,3.2-4.2,6-4.1v2.4h-0.2c-3.2,0-5.8,2.3-5.8,6.7V23h-2.2L147.2,8.3L147.2,8.3z"/>
		<path class="st0" d="M156.9,18.8L156.9,18.8c0-3.2,2.6-4.9,6.3-4.9c1.9,0,3.2,0.3,4.5,0.6v-0.5c0-2.6-1.6-4-4.4-4
			c-1.7,0-3.1,0.4-4.5,1.1l-0.7-1.8c1.6-0.7,3.2-1.3,5.3-1.3c2.1,0,3.7,0.6,4.8,1.6c1,1,1.5,2.5,1.5,4.3v9h-2.2v-2.2
			c-1,1.3-2.7,2.5-5.3,2.5C159.7,23.4,156.9,21.8,156.9,18.8z M167.8,17.6v-1.4c-1.1-0.3-2.5-0.6-4.3-0.6c-2.7,0-4.3,1.2-4.3,3v0.1
			c0,1.9,1.7,2.9,3.7,2.9C165.6,21.6,167.8,20,167.8,17.6z"/>
		<path class="st0" d="M174,2.3h4.3V10c1-1.3,2.3-2.5,4.5-2.5c3.3,0,5.2,2.2,5.2,5.7v9.9h-4.3v-8.5c0-2-1-3.1-2.6-3.1
			c-1.7,0-2.7,1.1-2.7,3.1v8.5H174L174,2.3L174,2.3z"/>
		<path class="st0" d="M191,15.5L191,15.5c0-4.4,3.5-8,8.3-8c4.7,0,8.2,3.5,8.2,7.9v0.1c0,4.4-3.5,7.9-8.3,7.9
			C194.5,23.4,191,19.9,191,15.5z M203.3,15.5L203.3,15.5c0-2.3-1.6-4.3-4-4.3c-2.5,0-4,1.9-4,4.2v0.1c0,2.2,1.6,4.2,4,4.2
			C201.8,19.7,203.3,17.8,203.3,15.5z"/>
		<path class="st0" d="M209.5,21l1.9-2.8c1.7,1.2,3.4,1.8,4.8,1.8c1.3,0,1.8-0.5,1.8-1.1v-0.1c0-0.9-1.5-1.3-3.2-1.8
			c-2.1-0.6-4.6-1.6-4.6-4.6v-0.1c0-3.1,2.5-4.8,5.6-4.8c1.9,0,4,0.7,5.7,1.8l-1.7,3c-1.5-0.9-3-1.4-4.1-1.4c-1.1,0-1.6,0.5-1.6,1.1
			V12c0,0.9,1.4,1.3,3.1,1.8c2.1,0.7,4.6,1.7,4.6,4.5v0.1c0,3.4-2.5,4.9-5.8,4.9C213.9,23.3,211.5,22.6,209.5,21z"/>
		<path class="st0" d="M225.4,18.7v-7.2h-1.8V7.8h1.8V3.9h4.3v3.9h3.6v3.7h-3.6V18c0,1,0.4,1.5,1.4,1.5c0.8,0,1.5-0.2,2.1-0.5v3.5
			c-0.9,0.5-2,0.9-3.4,0.9C227.2,23.3,225.4,22.3,225.4,18.7z"/>
		<path class="st0" d="M236.6,2.3h4.6v3.8h-4.6V2.3z M236.7,7.8h4.3v15.3h-4.3V7.8z"/>
		<path class="st0" d="M245.1,7.8h4.3V10c1-1.3,2.3-2.5,4.5-2.5c3.3,0,5.2,2.2,5.2,5.7v9.9h-4.3v-8.5c0-2-1-3.1-2.6-3.1
			c-1.7,0-2.7,1.1-2.7,3.1v8.5h-4.3V7.8z"/>
		<path class="st0" d="M262.9,26.1l1.5-3.2c1.6,0.9,3.1,1.4,5.2,1.4c3,0,4.4-1.4,4.4-4.2v-0.7c-1.3,1.5-2.7,2.5-5,2.5
			c-3.6,0-6.8-2.6-6.8-7.1v-0.1c0-4.6,3.3-7.1,6.8-7.1c2.4,0,3.8,1,4.9,2.3v-2h4.3v11.8c0,2.7-0.7,4.7-1.9,6c-1.4,1.4-3.6,2-6.6,2
			C267.2,27.7,264.8,27.1,262.9,26.1z M273.9,14.7L273.9,14.7c0-2.1-1.6-3.6-3.7-3.6s-3.7,1.4-3.7,3.5v0.1c0,2.1,1.6,3.5,3.7,3.5
			C272.3,18.2,273.9,16.8,273.9,14.7z"/>
	</g>
	<g>
		<g>
			<path class="st1" d="M6.7,27.5c-0.9,0-1.7-0.2-2.5-0.7c-2.3-1.4-3-4.4-1.6-6.7l9.6-15.7c1.4-2.3,4.4-3,6.7-1.6
				c2.3,1.4,3,4.4,1.6,6.7l-9.6,15.7C9.9,26.7,8.3,27.5,6.7,27.5z"/>
		</g>
		<g>
			<path class="st2" d="M26,27.5c-0.9,0-1.7-0.2-2.5-0.7c-2.3-1.4-3-4.4-1.6-6.7l9.6-15.7c1.4-2.3,4.4-3,6.7-1.6
				c2.3,1.4,3,4.4,1.6,6.7l-9.6,15.7C29.2,26.7,27.6,27.5,26,27.5z"/>
		</g>
		<g>
			<path class="st3" d="M16.3,27.5c-0.9,0-1.7-0.2-2.5-0.7c-2.3-1.4-3-4.4-1.6-6.7l9.6-15.7c1.4-2.3,4.4-3,6.7-1.6
				c2.3,1.4,3,4.4,1.6,6.7l-9.6,15.7C19.5,26.7,17.9,27.5,16.3,27.5z"/>
		</g>
		<polygon class="st4" points="15.5,14.9 21.2,24.1 26.8,14.8 21.1,5.6 		"/>
		<g>
			<path class="st5" d="M15.5,14.9l5.7-9.2l-0.7-1.2c-1.4-2.3-4.4-3-6.7-1.6s-3,4.4-1.6,6.7L15.5,14.9z"/>
		</g>
		<g>
			<path class="st1" d="M30.1,20.1l-3.3-5.3l-5.7,9.2l0.7,1.2c1.4,2.3,4.4,3,6.7,1.6c0.8-0.5,1.4-1.2,1.8-1.9
				C31.1,23.4,31,21.6,30.1,20.1z"/>
		</g>
	</g>
</g>
</svg>
